<svg width="108" height="15" viewBox="0 0 108 15" fill="none" xmlns="http://www.w3.org/2000/svg">
<path d="M6.99524 0.521791L5.08239 4.40022L0.802649 5.02416C0.0351658 5.13548 -0.272413 6.08165 0.284158 6.62358L3.38046 9.64078L2.64812 13.9029C2.5163 14.6734 3.32773 15.2504 4.00733 14.8901L7.83596 12.8777L11.6646 14.8901C12.3442 15.2475 13.1556 14.6734 13.0238 13.9029L12.2915 9.64078L15.3878 6.62358C15.9443 6.08165 15.6368 5.13548 14.8693 5.02416L10.5895 4.40022L8.67668 0.521791C8.33395 -0.16953 7.3409 -0.178317 6.99524 0.521791Z" fill="#D8C046"/>
<path d="M98.7841 0.521791L96.8712 4.40022L92.5915 5.02416C91.824 5.13548 91.5164 6.08165 92.073 6.62358L95.1693 9.64078L94.4369 13.9029C94.3051 14.6734 95.1165 15.2504 95.7961 14.8901L99.6248 12.8777L103.453 14.8901C104.133 15.2475 104.944 14.6734 104.813 13.9029L104.08 9.64078L107.177 6.62358C107.733 6.08165 107.426 5.13548 106.658 5.02416L102.378 4.40022L100.465 0.521791C100.123 -0.16953 99.1297 -0.178317 98.7841 0.521791Z" fill="#D8C046"/>
<path d="M75.8368 0.521791L73.9239 4.40022L69.6442 5.02416C68.8767 5.13548 68.5691 6.08165 69.1257 6.62358L72.222 9.64078L71.4897 13.9029C71.3579 14.6734 72.1693 15.2504 72.8489 14.8901L76.6775 12.8777L80.5061 14.8901C81.1857 15.2475 81.9972 14.6734 81.8653 13.9029L81.133 9.64078L84.2293 6.62358C84.7859 6.08165 84.4783 5.13548 83.7108 5.02416L79.4311 4.40022L77.5182 0.521791C77.1755 -0.16953 76.1825 -0.178317 75.8368 0.521791Z" fill="#D8C046"/>
<path d="M52.8895 0.521791L50.9767 4.40022L46.6969 5.02416C45.9295 5.13548 45.6219 6.08165 46.1784 6.62358L49.2747 9.64078L48.5424 13.9029C48.4106 14.6734 49.222 15.2504 49.9016 14.8901L53.7302 12.8777L57.5589 14.8901C58.2385 15.2475 59.0499 14.6734 58.9181 13.9029L58.1858 9.64078L61.282 6.62358C61.8386 6.08165 61.531 5.13548 60.7636 5.02416L56.4838 4.40022L54.571 0.521791C54.2282 -0.16953 53.2352 -0.178317 52.8895 0.521791Z" fill="#D8C046"/>
<path d="M29.9425 0.521791L28.0297 4.40022L23.7499 5.02416C22.9824 5.13548 22.6749 6.08165 23.2314 6.62358L26.3277 9.64078L25.5954 13.9029C25.4636 14.6734 26.275 15.2504 26.9546 14.8901L30.7832 12.8777L34.6119 14.8901C35.2915 15.2475 36.1029 14.6734 35.9711 13.9029L35.2387 9.64078L38.335 6.62358C38.8916 6.08165 38.584 5.13548 37.8165 5.02416L33.5368 4.40022L31.6239 0.521791C31.2812 -0.16953 30.2882 -0.178317 29.9425 0.521791Z" fill="#D8C046"/>
</svg>
