<svg width="22" height="22" viewBox="0 0 24 24" fill="none" xmlns="http://www.w3.org/2000/svg">
<path d="M19.3297 12.3419C19.3254 12.69 19.0632 12.9744 18.7271 13.0158L18.6338 13.0209L4.88481 12.851C4.50514 12.8463 4.20116 12.5347 4.20586 12.1551C4.21016 11.807 4.47233 11.5226 4.80844 11.4812L4.9018 11.4761L18.6507 11.646C19.0304 11.6507 19.3344 11.9623 19.3297 12.3419Z" fill="white"/>
<path d="M10.8614 17.2729C11.1271 17.5441 11.1227 17.9794 10.8514 18.2451C10.6049 18.4867 10.2227 18.505 9.95565 18.3025L9.87922 18.2352L4.40204 12.6451C4.15974 12.3978 4.14216 12.0143 4.34618 11.7472L4.41404 11.6708L10.0277 6.21686C10.3 5.95228 10.7353 5.95856 10.9999 6.23089C11.2404 6.47846 11.2571 6.86068 11.0535 7.12692L10.9858 7.20306L5.86763 12.1763L10.8614 17.2729Z" fill="white"/>
</svg>
