<svg width="18" height="18" viewBox="0 0 18 18" fill="none" xmlns="http://www.w3.org/2000/svg">
<path fill-rule="evenodd" clip-rule="evenodd" d="M8.8327 10.0986C8.33095 10.0986 7.8307 9.93281 7.4122 9.60131L4.04845 6.88931C3.8062 6.69431 3.7687 6.33956 3.96295 6.09806C4.1587 5.85731 4.5127 5.81906 4.7542 6.01331L8.11495 8.72231C8.5372 9.05681 9.13195 9.05681 9.5572 8.71931L12.8842 6.01481C13.1257 5.81756 13.4797 5.85506 13.6762 6.09656C13.872 6.33731 13.8352 6.69131 13.5945 6.88781L10.2615 9.59681C9.83995 9.93131 9.33595 10.0986 8.8327 10.0986Z" fill="#001833"/>
<mask id="mask0_2_175" style="mask-type:alpha" maskUnits="userSpaceOnUse" x="0" y="1" width="17" height="16">
<path fill-rule="evenodd" clip-rule="evenodd" d="M0.75 1.5H16.8749V16.125H0.75V1.5Z" fill="white"/>
</mask>
<g mask="url(#mask0_2_175)">
<path fill-rule="evenodd" clip-rule="evenodd" d="M5.12916 15H12.4942C12.4957 14.9985 12.5017 15 12.5062 15C13.3619 15 14.1209 14.694 14.7029 14.1128C15.3787 13.44 15.7499 12.4732 15.7499 11.391V6.24C15.7499 4.14525 14.3804 2.625 12.4942 2.625H5.13066C3.24441 2.625 1.87491 4.14525 1.87491 6.24V11.391C1.87491 12.4732 2.24691 13.44 2.92191 14.1128C3.50391 14.694 4.26366 15 5.11866 15H5.12916ZM5.11641 16.125C3.95916 16.125 2.92566 15.705 2.12766 14.91C1.23891 14.0235 0.749908 12.774 0.749908 11.391V6.24C0.749908 3.53775 2.63316 1.5 5.13066 1.5H12.4942C14.9917 1.5 16.8749 3.53775 16.8749 6.24V11.391C16.8749 12.774 16.3859 14.0235 15.4972 14.91C14.6999 15.7042 13.6657 16.125 12.5062 16.125H12.4942H5.13066H5.11641Z" fill="#001833"/>
</g>
</svg>
