<svg width="38" height="38" viewBox="0 0 38 38" fill="none" xmlns="http://www.w3.org/2000/svg">
<path d="M27.7255 0.876465H27.6351C24.0392 0.876465 20.8591 2.77925 19.0298 5.58703C17.2005 2.77925 14.0204 0.876465 10.4245 0.876465H10.3341C7.63548 0.902182 5.05605 1.99187 3.15634 3.90872C1.25664 5.82557 0.190186 8.41469 0.188721 11.1134C0.188721 14.4647 1.65648 19.2198 4.51849 23.1327C9.97137 30.5883 19.0298 37.1113 19.0298 37.1113C19.0298 37.1113 28.0882 30.5896 33.5399 23.1327C36.4031 19.2198 37.8697 14.4647 37.8697 11.1134C37.8682 8.41489 36.8019 5.82596 34.9025 3.90914C33.003 1.99232 30.4239 0.902497 27.7255 0.876465ZM26.4325 23.7063C26.0229 23.7047 25.6234 23.5794 25.2864 23.3467C24.9494 23.114 24.6907 22.7848 24.5441 22.4024H22.3943C22.2527 22.4015 22.115 22.3564 22.0003 22.2735C21.8855 22.1905 21.7996 22.0738 21.7544 21.9397L21.094 19.9501L19.0045 27.2515C18.9638 27.3921 18.8786 27.5157 18.7617 27.6037C18.6448 27.6917 18.5025 27.7394 18.3562 27.7396H18.314C18.1613 27.7322 18.0158 27.6727 17.9017 27.5709C17.7877 27.4691 17.712 27.3313 17.6874 27.1804L15.5339 14.2285L13.9601 21.8927C13.924 22.0383 13.8402 22.1676 13.722 22.26C13.6039 22.3523 13.4582 22.4025 13.3082 22.4024H10.2799C10.1891 22.4062 10.0985 22.3917 10.0135 22.3596C9.92846 22.3275 9.85082 22.2785 9.78523 22.2157C9.71964 22.1528 9.66745 22.0773 9.63179 21.9937C9.59613 21.9102 9.57775 21.8202 9.57775 21.7294C9.57775 21.6385 9.59613 21.5486 9.63179 21.465C9.66745 21.3814 9.71964 21.306 9.78523 21.2431C9.85082 21.1802 9.92846 21.1312 10.0135 21.0992C10.0985 21.0671 10.1891 21.0525 10.2799 21.0563H12.7779L15.0073 10.7519C15.0439 10.5996 15.1323 10.4647 15.2573 10.3703C15.3824 10.2759 15.5363 10.2278 15.6929 10.2344C15.8494 10.2409 15.9988 10.3016 16.1156 10.4061C16.2323 10.5107 16.3091 10.6525 16.3329 10.8073L18.5321 24.0196L20.4048 17.487C20.4437 17.3494 20.5262 17.2281 20.6398 17.1412C20.7534 17.0544 20.892 17.0065 21.035 17.0049H21.0483C21.1899 17.005 21.3279 17.0498 21.4426 17.1328C21.5572 17.2159 21.6428 17.3331 21.6869 17.4677L22.8812 21.06H24.5176C24.634 20.7065 24.8457 20.392 25.1295 20.1513C25.4133 19.9105 25.7581 19.7529 26.1258 19.6957C26.4935 19.6385 26.8699 19.6841 27.2134 19.8273C27.5569 19.9706 27.8541 20.2059 28.0723 20.5074C28.2904 20.8089 28.421 21.1648 28.4497 21.5358C28.4784 21.9069 28.404 22.2786 28.2347 22.61C28.0655 22.9415 27.8079 23.2197 27.4905 23.414C27.1731 23.6083 26.8082 23.7111 26.4361 23.7111L26.4325 23.7063Z" fill="white"/>
</svg>
