<svg width="29" height="29" viewBox="0 0 29 29" fill="none" xmlns="http://www.w3.org/2000/svg">
<path d="M28.173 20.4924L21.8291 17.7736C21.5581 17.6581 21.2569 17.6338 20.9709 17.7043C20.6849 17.7748 20.4295 17.9363 20.2432 18.1645L17.4337 21.5969C13.0246 19.5181 9.47626 15.9697 7.3974 11.5606L10.8299 8.75118C11.0585 8.56522 11.2204 8.30982 11.2909 8.02365C11.3614 7.73748 11.3368 7.43613 11.2207 7.16522L8.50191 0.821356C8.37453 0.529317 8.14924 0.290877 7.86489 0.14715C7.58054 0.00342407 7.25495 -0.0365794 6.94426 0.0340378L1.05353 1.39344C0.753996 1.46261 0.486747 1.63126 0.295406 1.87188C0.104065 2.1125 -6.90014e-05 2.41086 3.43033e-08 2.71828C3.43033e-08 17.2469 11.7758 29 26.2817 29C26.5892 29.0002 26.8877 28.8961 27.1285 28.7048C27.3692 28.5134 27.5379 28.2461 27.6071 27.9465L28.9665 22.0557C29.0367 21.7435 28.9958 21.4166 28.851 21.1313C28.7062 20.846 28.4664 20.6201 28.173 20.4924Z" fill="white"/>
</svg>
